<svg width="1000" height="1000" viewBox="0 0 1000 1000" fill="none" xmlns="http://www.w3.org/2000/svg">
<rect width="1000" height="1000" fill="#B7D3ED"/>
<path d="M874.947 437.647C605.685 249.611 283.773 333.744 127.476 407.802C115.719 413.372 109.381 426.113 111.723 438.91C125.567 514.557 146.446 586.712 160.548 629.609C165.263 643.954 180.206 651.989 194.994 648.931C477.764 590.457 691.922 643.331 780.037 669.881C791.927 673.464 806.76 669.234 812 657.976C835.973 606.469 857.411 548.307 871.19 510.922L871.539 509.976C877.219 494.564 881.939 481.04 885.639 469.936C889.617 457.994 885.266 444.853 874.947 437.647Z" fill="white" stroke="black" stroke-width="10" stroke-linejoin="round"/>
<path d="M494 388.262H434.438C429.198 388.262 424.847 392.306 424.465 397.532L422.259 427.672C421.936 432.089 418.746 435.767 414.419 436.712L380.315 444.16C375.522 445.207 372.196 449.576 372.464 454.474L374.913 499.378C375.202 504.681 379.587 508.833 384.898 508.833H410.682C416.592 508.833 421.213 513.931 420.634 519.812L419.366 532.711C418.787 538.593 423.408 543.69 429.318 543.69H491.929C497.135 543.69 501.47 539.696 501.896 534.507L503.247 518.016C503.673 512.828 508.008 508.833 513.214 508.833H548.388C553.64 508.833 557.998 504.769 558.363 499.529L562.111 445.815C562.514 440.032 557.932 435.119 552.135 435.119H514C508.477 435.119 504 430.642 504 425.119V398.262C504 392.739 499.523 388.262 494 388.262Z" fill="#FA7289" stroke="black" stroke-width="25" stroke-linejoin="round"/>
<path d="M190.088 433.28L254.336 638.088L194.312 648.954L173.733 644.379L162.3 634.085L115.996 468.807L110.851 437.925L113.709 419.624L137.719 401.324L244.046 362.435L329.222 340.703L406.395 331.553C305.359 364.311 243.239 384.697 195.635 416.882C190.326 420.472 188.169 427.164 190.088 433.28Z" fill="#F5D9F3"/>
<path d="M874.984 437.469C605.698 249.03 283.74 333.35 127.446 407.555C115.705 413.13 109.376 425.859 111.711 438.645C125.557 514.47 146.447 586.799 160.553 629.788C165.265 644.147 180.22 652.19 195.019 649.125C477.75 590.553 691.884 643.51 780.012 670.113C791.913 673.705 806.763 669.466 812 658.192C835.973 606.588 857.411 548.314 871.19 510.858L871.539 509.91C877.23 494.44 881.958 480.867 885.66 469.729C889.626 457.8 885.284 444.676 874.984 437.469Z" stroke="black" stroke-width="25" stroke-linejoin="round"/>
</svg>
